<svg xmlns="http://www.w3.org/2000/svg" viewBox="0 0 128 128">
  <defs>
    <linearGradient id="g" x1="18" x2="110" y1="16" y2="116" gradientUnits="userSpaceOnUse">
      <stop stop-color="#31d5ff"/>
      <stop offset="0.55" stop-color="#4a75ff"/>
      <stop offset="1" stop-color="#8d52ff"/>
    </linearGradient>
  </defs>
  <path fill="url(#g)" d="M64 10 108 28v30c0 30-17 51-44 62C37 109 20 88 20 58V28l44-18Z"/>
  <path fill="#07111d" fill-opacity=".25" d="M64 20 98 34v24c0 23-13 39-34 49-21-10-34-26-34-49V34l34-14Z"/>
  <rect x="39" y="56" width="50" height="40" rx="8" fill="#f4f7fb"/>
  <path fill="#f4f7fb" d="M49 56V44c0-9 7-16 15-16s15 7 15 16v12h-9V44c0-4-3-7-6-7s-6 3-6 7v12h-9Z"/>
  <circle cx="64" cy="76" r="6" fill="#4a75ff"/>
  <path fill="#4a75ff" d="M61 78h6l3 12H58l3-12Z"/>
</svg>
